<svg version="1.1" id="Layer_1" xmlns="http://www.w3.org/2000/svg" xmlns:xlink="http://www.w3.org/1999/xlink" x="0px" y="0px"
     width="100%" viewBox="0 0 1024 544" enable-background="new 0 0 1024 544" xml:space="preserve">
  
  <defs>
    <!-- Define the gradient from bottom-left to top-right -->
    <linearGradient id="phoenixGradient" x1="20%" y1="100%" x2="80%" y2="0%">
      <stop offset="0%" stop-color="#73091B" />   <!-- Deep Crimson for the base/book -->
      <stop offset="50%" stop-color="#D9252A" />  <!-- Vibrant Red for the core -->
      <stop offset="100%" stop-color="#F28C22" /> <!-- Golden Orange for the wing/head -->
    </linearGradient>
  </defs>

  <path fill="url(#phoenixGradient)" opacity="1.000000" stroke="none" 
      d="
M591.666260,195.618576 
    C597.959534,192.255463 604.116150,189.879852 611.073181,190.660477 
    C611.899414,190.753204 612.981567,190.457291 613.525696,190.880615 
    C619.529968,195.551941 626.836365,194.698303 633.674438,195.960648 
    C637.424377,196.652908 640.721436,198.809326 642.880432,202.548309 
    C642.294189,203.102341 641.908875,203.783859 641.385437,203.915237 
    C623.934692,208.295395 615.255249,221.311203 609.315430,236.801315 
    C604.128906,250.326889 599.593750,264.115753 591.607605,276.380951 
    C575.714417,300.789734 552.546448,315.336090 525.833618,325.222778 
    C508.368805,331.686707 490.390564,336.908081 474.030273,346.120087 
    C472.017548,347.253418 469.837982,348.145966 467.590637,350.870361 
    C480.839203,354.848724 491.915039,361.688385 500.062256,373.012482 
    C520.705078,348.224182 547.851135,346.024933 577.292053,348.799194 
    C573.415283,336.199402 564.517822,327.472198 557.499878,317.293213 
    C562.056763,313.790100 566.207764,310.510681 570.455994,307.362427 
    C573.575928,305.050323 574.992249,307.937561 576.456177,309.733887 
    C588.947449,325.061340 599.530945,341.541077 606.430054,360.193542 
    C608.298401,365.244965 610.643433,370.165833 611.530334,375.702789 
    C608.349854,376.315216 606.171570,374.910614 603.867981,374.159637 
    C581.166565,366.759186 558.136108,363.909729 534.542664,369.230042 
    C521.183411,372.242554 509.615540,378.365326 500.589264,389.792694 
    C480.308960,366.208527 453.170532,365.446960 424.844696,367.241180 
    C426.040161,361.370697 429.227356,357.465240 432.057190,353.493286 
    C439.926514,342.447937 450.239441,334.124542 461.918823,327.376190 
    C465.820374,325.121857 469.514618,322.579163 469.609589,317.268921 
    C451.673309,318.110626 416.957031,354.151855 414.809814,374.001801 
    C416.570374,375.575226 418.634064,374.783905 420.470032,374.394867 
    C430.153137,372.343231 439.893707,371.982971 449.757843,372.550995 
    C467.768311,373.588074 484.049805,378.912964 497.587891,391.212433 
    C500.022888,393.424591 501.698944,393.125793 503.919525,391.071075 
    C517.125732,378.851349 533.121582,373.924042 550.760437,372.569519 
    C570.642822,371.042755 589.401611,375.541870 608.061340,381.475159 
    C613.056030,383.063354 616.174438,385.756195 616.816528,391.011078 
    C617.112244,393.431213 618.515930,395.674744 618.112000,398.591644 
    C614.044617,398.499969 610.715149,396.554596 607.255249,395.272766 
    C588.106812,388.178833 568.421143,384.570770 547.982239,386.268097 
    C534.578796,387.381134 522.306335,391.233826 512.426331,401.206207 
    C505.948883,407.744202 495.569763,408.135345 489.339355,402.005951 
    C477.222015,390.084991 462.385986,386.270416 446.051331,385.887817 
    C425.856720,385.414856 406.838043,390.626953 388.093018,397.348297 
    C386.997772,397.741028 385.907196,398.149078 384.799377,398.502808 
    C384.503479,398.597290 384.151794,398.517120 383.781067,398.517120 
    C382.191132,397.191864 382.778839,395.466400 383.038910,393.915192 
    C388.412231,361.870331 401.899445,334.398926 428.175385,314.190582 
    C441.121887,304.233673 455.834137,297.604309 470.910919,291.679657 
    C480.363098,287.965271 489.910065,284.467041 498.832977,279.539001 
    C501.757294,277.923950 504.656952,276.235443 506.619385,273.415283 
    C508.746796,270.358063 508.452942,267.765472 504.834595,266.129944 
    C501.331482,264.546478 497.718323,263.490326 493.799255,263.260742 
    C484.138794,262.694794 474.573120,261.350677 465.330353,258.357391 
    C457.488525,255.817810 451.291565,250.825394 445.653473,244.745285 
    C462.035431,249.861572 478.668518,248.438721 496.661224,248.639984 
    C492.472626,246.178970 489.097687,245.922684 485.841949,245.385117 
    C472.026886,243.104126 458.212036,240.925659 445.834076,233.658783 
    C432.676819,225.934372 424.691284,214.376663 420.500702,199.528275 
    C429.963623,208.159012 440.867889,214.114990 452.811188,217.964615 
    C464.762451,221.816788 477.022186,224.543045 489.507782,226.398331 
    C482.664856,222.210297 475.015411,220.103775 467.646759,217.328995 
    C457.002747,213.320831 446.738037,208.656296 437.907532,201.272278 
    C425.107910,190.569336 419.231628,176.507004 417.872559,160.251999 
    C417.742462,158.695908 417.321625,156.948700 418.486176,155.573029 
    C419.599823,155.147141 420.191895,155.810638 420.660889,156.467651 
    C435.142365,176.754425 456.025452,187.402710 478.977692,194.563400 
    C493.571533,199.116394 508.562256,202.389862 523.186829,206.853729 
    C536.722473,210.985245 548.756226,217.562225 554.902649,231.437027 
    C556.586182,235.237503 558.828003,236.000580 562.233704,233.363953 
    C569.142639,228.015106 575.307068,222.069748 579.207397,213.431183 
    C574.386719,210.187668 567.466248,209.770355 564.508362,201.906036 
    C574.652161,203.420654 583.179199,200.261353 591.666260,195.618576 
z"/>
</svg>
